<svg width="20" height="20" viewBox="0 0 20 20" fill="none" xmlns="http://www.w3.org/2000/svg">
<path d="M10.6173 15.3363L12.6558 13.2978C12.9985 12.9552 13.5375 12.9075 13.935 13.1847L16.6204 15.0576C17.1288 15.4122 17.1932 16.1402 16.7548 16.5785C16.0476 17.2858 15.0319 17.5929 14.0841 17.2733C12.3224 16.6791 9.36033 15.3947 6.88479 12.9191C4.40925 10.4436 3.12482 7.48154 2.53068 5.71986C2.21104 4.77208 2.51816 3.75637 3.22543 3.0491C3.66375 2.61078 4.39172 2.67515 4.74632 3.18358L6.61921 5.86894C6.89643 6.26641 6.84877 6.80544 6.50611 7.1481L4.46761 9.1866" stroke="white" stroke-opacity="0.9" stroke-width="2" stroke-linecap="round"/>
</svg>
